<svg fill="#8698a1" width="16px" height="16px" version="1.1" viewBox="0 0 96 96" xml:space="preserve" xmlns="http://www.w3.org/2000/svg" xmlns:xlink="http://www.w3.org/1999/xlink"><path d="M53.6,48c0,0.5-0.2,0.9-0.6,1.3L26.5,75.8c-0.4,0.4-0.8,0.6-1.3,0.6c-0.5,0-0.9-0.2-1.3-0.6
		L21.1,73c-0.4-0.4-0.6-0.8-0.6-1.3c0-0.5,0.2-0.9,0.6-1.3L43.4,48L21.1,25.6c-0.4-0.4-0.6-0.8-0.6-1.3c0-0.5,0.2-0.9,0.6-1.3
		l2.8-2.8c0.4-0.4,0.8-0.6,1.3-0.6c0.5,0,0.9,0.2,1.3,0.6l26.5,26.5C53.4,47.1,53.6,47.5,53.6,48z M75.5,48c0,0.5-0.2,0.9-0.6,1.3
		L48.4,75.8c-0.4,0.4-0.8,0.6-1.3,0.6c-0.5,0-0.9-0.2-1.3-0.6L42.9,73c-0.4-0.4-0.6-0.8-0.6-1.3c0-0.5,0.2-0.9,0.6-1.3L65.3,48
		L42.9,25.6c-0.4-0.4-0.6-0.8-0.6-1.3c0-0.5,0.2-0.9,0.6-1.3l2.8-2.8c0.4-0.4,0.8-0.6,1.3-0.6c0.5,0,0.9,0.2,1.3,0.6l26.5,26.5
		C75.3,47.1,75.5,47.5,75.5,48z"/></svg>