<svg fill="#b1b8bd" width="16px" height="16px" version="1.1" viewBox="0 0 96 96" xml:space="preserve" xmlns="http://www.w3.org/2000/svg" xmlns:xlink="http://www.w3.org/1999/xlink"><path d="M53.6,71.7c0,0.5-0.2,0.9-0.6,1.3l-2.8,2.8c-0.4,0.4-0.8,0.6-1.3,0.6c-0.5,0-0.9-0.2-1.3-0.6
		L21.1,49.3c-0.4-0.4-0.6-0.8-0.6-1.3s0.2-0.9,0.6-1.3l26.5-26.5c0.4-0.4,0.8-0.6,1.3-0.6c0.5,0,0.9,0.2,1.3,0.6l2.8,2.8
		c0.4,0.4,0.6,0.8,0.6,1.3c0,0.5-0.2,0.9-0.6,1.3L30.7,48l22.4,22.4C53.4,70.8,53.6,71.2,53.6,71.7z M75.5,71.7
		c0,0.5-0.2,0.9-0.6,1.3l-2.8,2.8c-0.4,0.4-0.8,0.6-1.3,0.6c-0.5,0-0.9-0.2-1.3-0.6L42.9,49.3c-0.4-0.4-0.6-0.8-0.6-1.3
		s0.2-0.9,0.6-1.3l26.5-26.5c0.4-0.4,0.8-0.6,1.3-0.6c0.5,0,0.9,0.2,1.3,0.6l2.8,2.8c0.4,0.4,0.6,0.8,0.6,1.3c0,0.5-0.2,0.9-0.6,1.3
		L52.6,48l22.4,22.4C75.3,70.8,75.5,71.2,75.5,71.7z"/></svg>