<svg width="100%" height="100%" viewBox="0 0 143 31" version="1.1" xmlns="http://www.w3.org/2000/svg">
  <g id="Campaign-Analytics---v2-" stroke="none" strokeWidth="1" fill="none" fillRule="evenodd">
    <g id="Create-New-Planning-Scenario" transform="translate(-13.000000, -3.000000)">
      <g id="Group-25" transform="translate(-41.000000, -29.000000)">
        <g id="Group" transform="translate(54.000000, 32.000000)">
          <g id="Shape">
            <path d="M34.1055,25.3473947 L31.4309012,25.3473947 L31.4309012,11.8248684 L35.0042384,11.8248684 L38.5060756,21.6608421 L41.997936,11.8248684 L45.5604651,11.8248684 L45.5604651,25.3473947 L42.9049884,25.3473947 L42.998936,15.5301842 L39.5170523,25.3473947 L37.4851221,25.3473947 L33.9932616,15.5301842 L34.1055,25.3473947 L34.1055,25.3473947 Z M4.77969186,23.0272895 C6.27537209,23.0272895 7.37780233,22.6675263 8.08448837,21.9496316 C8.79117442,21.2317368 9.14368605,20.1083947 9.14368605,18.5771579 C9.14368605,17.1691053 8.75542442,16.0775789 7.98388953,15.2960526 C7.21401744,14.5169737 6.12738372,14.1262105 4.74061628,14.1262105 L2.98055233,14.1262105 L2.98055233,23.0272895 L4.77969186,23.0272895 L4.77969186,23.0272895 Z M4.9509593,25.3473947 L0.266046512,25.3473947 L0.266046512,11.8248684 L4.87280814,11.8248684 C6.12239535,11.8248684 7.12256395,11.9488684 7.87414535,12.1960526 C8.62240116,12.4416053 9.30663953,12.8592895 9.91854651,13.4417632 C10.5670349,14.0585 11.0608837,14.8090263 11.3942733,15.6892632 C11.7268314,16.5654211 11.8956047,17.5566053 11.8956047,18.6530263 C11.8956047,19.8767105 11.6603198,20.9739474 11.1947384,21.9431053 C10.729157,22.9122632 10.0474128,23.7060263 9.15948256,24.3366316 C8.65399419,24.6963947 8.08947674,24.9615263 7.46676163,25.1165263 C6.84321512,25.2715263 6.00350581,25.3473947 4.9509593,25.3473947 Z" fill="#F5F5F7" />
            <g transform="translate(7.482558, 0.000000)">
              <path d="M14.8886279,11.2587105 C15.301,11.2962368 15.698407,11.3598684 16.0800174,11.4512368 L16.0800174,10.4747368 C15.7225174,10.3980526 15.3550407,10.3425789 14.9775872,10.3083158 C13.437843,10.1688158 11.9853953,10.4111053 10.6169186,11.0302895 C9.24761047,11.6543684 8.1160814,12.5802895 7.21734302,13.8121316 C6.32276163,15.0431579 5.80230814,16.4381579 5.65598256,17.9914211 C5.44813372,20.2005789 6.02761628,22.1829474 7.39526163,23.9271053 C6.9363314,24.3423421 6.57384302,24.4712368 5.8995814,25.0227105 C5.7915,24.9435789 5.60526744,24.9362368 5.49801744,24.8864737 C5.2186686,24.7600263 4.97673256,24.7787895 4.7730407,24.9443947 L0.858831395,28.1422895 C0.655139535,28.3087105 0.594447674,28.5412105 0.671767442,28.8389737 C0.749918605,29.1359211 0.9295,29.4483684 1.20884884,29.7771316 C1.49900581,30.1189474 1.78583721,30.3563421 2.06934302,30.4860526 C2.35118605,30.6149474 2.59644767,30.5978158 2.80180233,30.4305789 L6.71601163,27.2326842 C6.92053488,27.0654474 6.98288953,26.8321316 6.90307558,26.536 C6.85984302,26.3761053 6.78501744,26.2088684 6.67859884,26.0359211 L6.9529593,25.7928158 L8.1327093,24.7461579 C9.60178488,26.2317105 11.3493779,27.0687105 13.3771512,27.2522632 C14.9243779,27.3933947 16.3859709,27.1437632 17.759436,26.5090789 C19.1337326,25.8743947 20.2710814,24.9321579 21.1706512,23.6856316 C22.0710523,22.4382895 22.5948314,21.0555263 22.737,19.5422368 C22.8808314,18.0158947 22.6289186,16.5670526 21.9795988,15.1940789 C21.5447791,14.2795789 20.9844186,13.4768421 20.297686,12.7850526 L20.0915,12.7850526 L20.0898372,13.8390526 L19.9601395,13.8390526 L20.0441105,13.9393947 C21.3884767,15.562 21.9621395,17.3983421 21.7684244,19.4500526 C21.6412209,20.7944737 21.1897733,22.0042895 20.409093,23.0827632 C19.6284128,24.1612368 18.6166047,24.9974211 17.3736686,25.5823421 C16.1565058,26.1566579 14.8562035,26.3818158 13.4744244,26.2561842 C11.9504767,26.1183158 10.6160872,25.5758158 9.46211047,24.6254211 C9.02396512,24.2664737 8.65981395,23.9140526 8.36716279,23.5673421 C8.11358721,23.2679474 7.85252907,22.8739211 7.58149419,22.3779211 C7.32459302,21.9023158 7.12505814,21.4479211 6.99203488,21.0114737 C6.69772093,20.0839211 6.59878488,19.1090526 6.69605814,18.0811579 C6.82076744,16.7563158 7.26972093,15.5342632 8.04541279,14.4280526 C8.82193605,13.3177632 9.81711628,12.4807632 11.0301221,11.9170526 C12.2381395,11.3533421 13.5259709,11.1355263 14.8886279,11.2587105 L14.8886279,11.2587105 Z M20.1097907,12.1691316 L20.1097907,11.8322105 L20.1097907,10.9911316 L21.3793314,10.9911316 L21.3793314,12.1683158 L20.5038721,12.1683158 L20.1097907,12.1683158 L20.1097907,12.1691316 Z" fill="#3C80B7" />
              <polygon fill="#F5F5F7" points="8.90424419 20.6345789 12.6222442 20.6345789 12.6222442 24.2827895 15.7599302 24.2827895 15.7599302 20.6345789 19.4779302 20.6345789 19.4779302 17.5492632 15.7599302 17.5492632 15.7599302 13.9010526 12.6222442 13.9010526 12.6222442 17.5492632 8.90424419 17.5492632" />
              <path d="M16.7085523,13.2231316 L16.7085523,11.2546316 L16.7085523,10.6680789 L17.6846105,10.6680789 L19.4621337,10.6680789 L19.4654593,10.7080526 L19.4637965,11.6315263 L19.4621337,12.7263158 L19.4613023,13.2215 L16.7085523,13.2215 L16.7085523,13.2231316 Z M13.4212151,5.94547368 L13.4212151,0.383421053 L19.4189012,0.383421053 L19.4189012,5.94547368 L13.4212151,5.94547368 L13.4212151,5.94547368 Z M20.1563488,5.61589474 L20.1563488,2.77694737 L23.2175465,2.77694737 L23.2175465,5.61589474 L20.1563488,5.61589474 L20.1563488,5.61589474 Z M24.2251977,10.3727632 L19.8503953,10.3727632 L19.8470698,10.3319737 L19.8503953,6.31502632 L24.2251977,6.31502632 L24.2251977,10.3727632 L24.2251977,10.3727632 Z M17.2730698,8.30636842 L17.2730698,6.60136842 L19.1112849,6.60136842 L19.1112849,8.30636842 L17.2730698,8.30636842 Z" fill="#F5F5F7" />
            </g>
          </g>
          <g transform="translate(49.883721, 6.526316)">
            <g transform="translate(4.988372, 7.342105)" id="Shape">
              <path d="M0.62022093,0.135421053 L0.62022093,9.81231579 L3.38959884,9.81231579 C4.2193314,9.81231579 4.88278488,9.74623684 5.37580233,9.61244737 C5.86798837,9.48110526 6.33107558,9.26084211 6.76256977,8.95492105 C7.40523837,8.50297368 7.89576163,7.93844737 8.23746512,7.26052632 C8.57750581,6.58178947 8.74877326,5.83126316 8.74877326,5.00731579 C8.74877326,3.55847368 8.2931686,2.38292105 7.38528488,1.48555263 C6.47407558,0.584921053 5.27936047,0.135421053 3.79698256,0.135421053 L0.62022093,0.135421053 L0.62022093,0.135421053 Z M26.303686,3.59192105 C26.987093,3.59192105 27.5790465,3.84726316 28.0787151,4.35794737 C28.5783837,4.87107895 28.8253081,5.48536842 28.8253081,6.20489474 C28.8253081,6.87628947 28.5750581,7.46610526 28.072064,7.967 C27.5682384,8.47034211 26.987093,8.72242105 26.3286279,8.72242105 C25.6069767,8.72242105 24.9967326,8.47278947 24.4978953,7.97189474 C24.0007209,7.471 23.7513023,6.851 23.7513023,6.10944737 C23.7513023,5.40623684 24.0015523,4.80989474 24.4978953,4.32286842 C24.9967326,3.83502632 25.5978314,3.59192105 26.303686,3.59192105 L26.303686,3.59192105 Z M24.6616802,2.58931579 C24.2152209,2.77368421 23.8061744,3.05676316 23.4312151,3.44263158 C23.0895116,3.79178947 22.8251279,4.19805263 22.6405581,4.65815789 C22.4559884,5.11826316 22.3637035,5.60610526 22.3637035,6.12168421 C22.3637035,7.22381579 22.732843,8.14239474 23.4736163,8.87497368 C24.2127267,9.60755263 25.1422267,9.97547368 26.2612849,9.97547368 C26.7393372,9.97547368 27.1882907,9.88736842 27.6114709,9.70789474 C28.032157,9.52842105 28.4162616,9.26573684 28.7579651,8.91576316 L28.7579651,9.81231579 L30.1172965,9.81231579 L30.1172965,2.50365789 L28.7579651,2.50365789 L28.7579651,3.38634211 C28.4071163,3.02576316 28.0155291,2.75736842 27.5890233,2.58115789 C27.1583605,2.40168421 26.6894535,2.31357895 26.1814709,2.31357895 C25.6119651,2.31276316 25.104814,2.40576316 24.6616802,2.58931579 L24.6616802,2.58931579 Z M19.3839826,2.50284211 L18.3297733,2.50284211 L18.3297733,3.70042105 L19.3839826,3.70042105 L19.3839826,9.8115 L20.7158779,9.8115 L20.7158779,3.70042105 L21.7700872,3.70042105 L21.7700872,2.50284211 L20.7158779,2.50284211 L20.7158779,0.134605263 L19.3839826,0.134605263 L19.3839826,2.50284211 L19.3839826,2.50284211 Z M13.4361802,2.31276316 C12.8675058,2.31276316 12.361186,2.40576316 11.9172209,2.58931579 C11.471593,2.77368421 11.0617151,3.05676316 10.6875872,3.44263158 C10.3450523,3.79178947 10.0815,4.19805263 9.89693023,4.65815789 C9.71236047,5.11826316 9.61924419,5.60610526 9.61924419,6.12168421 C9.61924419,7.22381579 9.98921512,8.14239474 10.729157,8.87497368 C11.4682674,9.60755263 12.3977674,9.97547368 13.5168256,9.97547368 C13.9957093,9.97547368 14.4438314,9.88736842 14.8670116,9.70789474 C15.2876977,9.52842105 15.6709709,9.26573684 16.0135058,8.91576316 L16.0135058,9.81231579 L17.3728372,9.81231579 L17.3728372,2.50365789 L16.0135058,2.50365789 L16.0135058,3.38634211 C15.6618256,3.02576316 15.2710698,2.75736842 14.8437326,2.58115789 C14.4139012,2.40086842 13.9441628,2.31276316 13.4361802,2.31276316 L13.4361802,2.31276316 Z M13.5583953,3.59192105 C14.2426337,3.59192105 14.8345872,3.84726316 15.3342558,4.35794737 C15.8339244,4.87107895 16.0808488,5.48536842 16.0808488,6.20489474 C16.0808488,6.87628947 15.8314302,7.46610526 15.3276047,7.967 C14.8237791,8.47034211 14.2434651,8.72242105 13.5841686,8.72242105 C12.8625174,8.72242105 12.2522733,8.47278947 11.753436,7.97189474 C11.2562616,7.471 11.006843,6.851 11.006843,6.10944737 C11.006843,5.40623684 11.2562616,4.80989474 11.753436,4.32286842 C12.2522733,3.83502632 12.8533721,3.59192105 13.5583953,3.59192105 L13.5583953,3.59192105 Z M3.74044767,8.51847368 L2.00698837,8.51847368 L2.00698837,1.45455263 L3.47689535,1.45455263 C4.67410465,1.45455263 5.61025581,1.77026316 6.28784302,2.39842105 C6.96543023,3.02902632 7.30547093,3.90273684 7.30547093,5.02118421 C7.30547093,6.09802632 6.98621512,6.95134211 6.3460407,7.57705263 C5.70836047,8.20602632 4.83872093,8.51847368 3.74044767,8.51847368 Z" fill="#F5F5F7" />
              <path d="M33.1178023,0.135421053 L33.1178023,9.81231579 L34.0888721,9.81231579 L34.0888721,5.74315789 L35.3833547,5.74315789 C35.9478721,5.74315789 36.4092965,5.70481579 36.7726163,5.62731579 C37.135936,5.54981579 37.4502035,5.42255263 37.712093,5.25042105 C38.0862209,5.00731579 38.3780407,4.67936842 38.5875523,4.26413158 C38.7987267,3.85052632 38.9026512,3.39939474 38.9026512,2.91236842 C38.9026512,2.39923684 38.7862558,1.93668421 38.5534651,1.52878947 C38.3223372,1.11844737 37.9889477,0.784789474 37.5549593,0.527815789 C37.3163488,0.389947368 37.0162151,0.289605263 36.6553895,0.228421053 C36.294564,0.167236842 35.8140174,0.135421053 35.21375,0.135421053 L33.1178023,0.135421053 L33.1178023,0.135421053 Z M50.1805291,4.36773684 C50.1805291,4.87189474 50.3069012,5.27571053 50.5596453,5.57673684 C50.8115581,5.87857895 51.3494709,6.17389474 52.1750465,6.46186842 C52.6880174,6.64705263 53.044686,6.84773684 53.240064,7.05739474 C53.4362733,7.27113158 53.5360407,7.55176316 53.5360407,7.90092105 C53.5360407,8.25089474 53.4113314,8.54131579 53.1635756,8.77218421 C52.9166512,9.00142105 52.6040465,9.11726316 52.2324128,9.11726316 C51.8391628,9.11726316 51.511593,8.96715789 51.2447151,8.67021053 C50.9795,8.37081579 50.8456453,7.99392105 50.8456453,7.53789474 L50.8456453,7.51097368 L49.8604419,7.51097368 C49.8828895,8.27292105 50.1048721,8.87905263 50.5305465,9.32773684 C50.9562209,9.77723684 51.5182442,10.0015789 52.2182791,10.0015789 C52.9041802,10.0015789 53.4711919,9.79518421 53.919314,9.38484211 C54.3657733,8.97205263 54.59025,8.45076316 54.59025,7.82178947 C54.59025,7.32089474 54.4813372,6.90973684 54.2618488,6.58505263 C54.0415291,6.26281579 53.6998256,6.00176316 53.2334128,5.80760526 C53.1153547,5.75947368 52.8842267,5.68523684 52.5375349,5.58326316 C52.1900116,5.48047368 51.9272907,5.37442105 51.7468779,5.26265789 C51.5481744,5.14436842 51.4068372,5.01057895 51.3212035,4.86128947 C51.2355698,4.71363158 51.1923372,4.53089474 51.1923372,4.31226316 C51.1923372,4.00878947 51.2962616,3.75181579 51.5041105,3.54623684 C51.7102965,3.33984211 51.9713547,3.23786842 52.2814651,3.23786842 C52.6306512,3.23786842 52.9033488,3.3325 53.1037151,3.52339474 C53.3049128,3.71428947 53.4163198,3.98186842 53.4387674,4.32613158 L54.4647093,4.32613158 C54.4372733,3.69389474 54.236907,3.19871053 53.8611163,2.84302632 C53.4869884,2.48897368 52.9823314,2.31276316 52.3454826,2.31276316 C51.7460465,2.31276316 51.2330756,2.51181579 50.8123895,2.91155263 C50.3908721,3.31128947 50.1805291,3.79586842 50.1805291,4.36773684 L50.1805291,4.36773684 Z M42.5632849,2.50284211 L42.5632849,6.31339474 C42.5632849,7.63415789 42.801064,8.57965789 43.2757907,9.14826316 C43.749686,9.71768421 44.5237151,10.0015789 45.5987093,10.0015789 C46.1050291,10.0015789 46.5373547,9.92407895 46.8940233,9.76826316 C47.2498605,9.61407895 47.5732733,9.36444737 47.8625988,9.01773684 L47.8625988,9.8115 L48.8195349,9.8115 L48.8195349,2.50284211 L47.8625988,2.50284211 L47.8625988,6.09557895 C47.8625988,6.73760526 47.837657,7.18710526 47.7877733,7.44734211 C47.7370581,7.70594737 47.6572442,7.93110526 47.543343,8.12118421 C47.3446395,8.44342105 47.08275,8.68978947 46.7576744,8.86028947 C46.4334302,9.02997368 46.0568081,9.11644737 45.6269767,9.11644737 C44.8737326,9.11644737 44.33,8.90923684 44.0024302,8.49481579 C43.6723663,8.08121053 43.50775,7.37636842 43.50775,6.38028947 L43.50775,2.50121053 L42.5632849,2.50121053 L42.5632849,2.50284211 Z M40.0923779,0.135421053 L40.0923779,9.81231579 L41.049314,9.81231579 L41.049314,0.135421053 L40.0923779,0.135421053 L40.0923779,0.135421053 Z M35.5172093,4.77563158 L34.0888721,4.77563158 L34.0888721,1.08744737 L35.436564,1.08744737 C36.2804302,1.08744737 36.8923372,1.23755263 37.2739477,1.53613158 C37.6555581,1.83552632 37.8467791,2.30705263 37.8467791,2.95397368 C37.8467791,3.57560526 37.6572209,4.03326316 37.2781047,4.33102632 C36.8998198,4.62878947 36.3128547,4.77563158 35.5172093,4.77563158 Z" fill="#3C80B7" />
              <path d="M58.531064,1.41213158 L61.7161395,9.8115 L62.7312733,9.8115 L65.9379651,1.41213158 L65.8415233,9.8115 L67.1867209,9.8115 L67.1867209,0.134605263 L65.0907733,0.134605263 L62.232436,7.61784211 L59.3740988,0.134605263 L57.2557035,0.134605263 L57.2557035,9.8115 L58.6291686,9.8115 L58.531064,1.41213158 L58.531064,1.41213158 Z M81.6064419,0.135421053 L81.6064419,9.81231579 L82.9516395,9.81231579 L82.9516395,6.49123684 C82.9516395,5.92018421 82.9724244,5.5025 83.0164884,5.24226316 C83.0580581,4.98121053 83.1303895,4.7585 83.2293256,4.57739474 C83.3906163,4.27636842 83.6084419,4.04713158 83.8786453,3.88560526 C84.1488488,3.72734211 84.4589593,3.64739474 84.8123023,3.64739474 C85.3876279,3.64739474 85.8182907,3.84481579 86.0976395,4.23965789 C86.3778198,4.63205263 86.5166628,5.23573684 86.5166628,6.04581579 L86.5166628,9.81313158 L87.8618605,9.81313158 L87.8618605,5.62078947 C87.8618605,4.59534211 87.6116105,3.79994737 87.1102791,3.23215789 C86.6081163,2.66518421 85.9064186,2.38128947 85.005186,2.38128947 C84.5420988,2.38128947 84.1405349,2.46123684 83.7963372,2.62194737 C83.4496453,2.78102632 83.1694651,3.01842105 82.9516395,3.33413158 L82.9516395,0.136236842 L81.6064419,0.136236842 L81.6064419,0.135421053 Z M77.1983837,2.50284211 L77.1983837,3.70042105 L78.2534244,3.70042105 L78.2534244,9.8115 L79.5853198,9.8115 L79.5853198,3.70042105 L80.6395291,3.70042105 L80.6395291,2.50284211 L79.5853198,2.50284211 L79.5853198,0.134605263 L78.2534244,0.134605263 L78.2534244,2.50284211 L77.1983837,2.50284211 L77.1983837,2.50284211 Z M69.5561977,3.44263158 C69.2136628,3.79178947 68.9501105,4.19805263 68.7655407,4.65815789 C68.5801395,5.11826316 68.4878547,5.60610526 68.4878547,6.12168421 C68.4878547,7.22381579 68.8578256,8.14239474 69.5977674,8.87497368 C70.3377093,9.60755263 71.2663779,9.97547368 72.3862674,9.97547368 C72.8643198,9.97547368 73.3124419,9.88736842 73.7364535,9.70789474 C74.1571395,9.52842105 74.5404128,9.26573684 74.8829477,8.91576316 L74.8829477,9.81231579 L76.2422791,9.81231579 L76.2422791,2.50365789 L74.8829477,2.50365789 L74.8829477,3.38634211 C74.5312674,3.02576316 74.1405116,2.75736842 73.7131744,2.58115789 C73.2825116,2.40168421 72.814436,2.31357895 72.3056221,2.31357895 C71.7369477,2.31357895 71.2306279,2.40657895 70.7866628,2.59013158 C70.3393721,2.77286842 69.9303256,3.05676316 69.5561977,3.44263158 L69.5561977,3.44263158 Z M70.6212151,7.97189474 C70.1240407,7.471 69.8754535,6.851 69.8754535,6.10944737 C69.8754535,5.40623684 70.1248721,4.80989474 70.6212151,4.32286842 C71.1208837,3.83502632 71.7219826,3.59192105 72.4270058,3.59192105 C73.1112442,3.59192105 73.7031977,3.84726316 74.2028663,4.35794737 C74.7017035,4.87107895 74.9486279,5.48536842 74.9486279,6.20489474 C74.9486279,6.87628947 74.6992093,7.46610526 74.1953837,7.967 C73.6907267,8.47034211 73.1112442,8.72242105 72.4519477,8.72242105 C71.7311279,8.72242105 71.1208837,8.47360526 70.6212151,7.97189474 Z" fill="#F5F5F7" />
            </g>
            <rect id="Rectangle-path" fill="#F5F5F7" x="0.395744186" y="0.569421053" width="0.669273256" height="22.0524211" />
          </g>
        </g>
      </g>
    </g>
  </g>
</svg>