<svg width="100%" height="100%" viewBox="0 0 43 31" version="1.1" xmlns="http://www.w3.org/2000/svg">
  <g id="Campaign-Analytics---v2-" stroke="none" strokeWidth="1" fill="none" fillRule="evenodd">
    <g id="Create-New-Planning-Scenario" transform="translate(-13.000000, -3.000000)">
      <g id="Group-25" transform="translate(-41.000000, -29.000000)">
        <g id="Group" transform="translate(54.000000, 32.000000)">
          <g id="Shape">
            <g transform="translate(7.482558, 0.000000)">
              <path d="M14.8886279,11.2587105 C15.301,11.2962368 15.698407,11.3598684 16.0800174,11.4512368 L16.0800174,10.4747368 C15.7225174,10.3980526 15.3550407,10.3425789 14.9775872,10.3083158 C13.437843,10.1688158 11.9853953,10.4111053 10.6169186,11.0302895 C9.24761047,11.6543684 8.1160814,12.5802895 7.21734302,13.8121316 C6.32276163,15.0431579 5.80230814,16.4381579 5.65598256,17.9914211 C5.44813372,20.2005789 6.02761628,22.1829474 7.39526163,23.9271053 C6.9363314,24.3423421 6.57384302,24.4712368 5.8995814,25.0227105 C5.7915,24.9435789 5.60526744,24.9362368 5.49801744,24.8864737 C5.2186686,24.7600263 4.97673256,24.7787895 4.7730407,24.9443947 L0.858831395,28.1422895 C0.655139535,28.3087105 0.594447674,28.5412105 0.671767442,28.8389737 C0.749918605,29.1359211 0.9295,29.4483684 1.20884884,29.7771316 C1.49900581,30.1189474 1.78583721,30.3563421 2.06934302,30.4860526 C2.35118605,30.6149474 2.59644767,30.5978158 2.80180233,30.4305789 L6.71601163,27.2326842 C6.92053488,27.0654474 6.98288953,26.8321316 6.90307558,26.536 C6.85984302,26.3761053 6.78501744,26.2088684 6.67859884,26.0359211 L6.9529593,25.7928158 L8.1327093,24.7461579 C9.60178488,26.2317105 11.3493779,27.0687105 13.3771512,27.2522632 C14.9243779,27.3933947 16.3859709,27.1437632 17.759436,26.5090789 C19.1337326,25.8743947 20.2710814,24.9321579 21.1706512,23.6856316 C22.0710523,22.4382895 22.5948314,21.0555263 22.737,19.5422368 C22.8808314,18.0158947 22.6289186,16.5670526 21.9795988,15.1940789 C21.5447791,14.2795789 20.9844186,13.4768421 20.297686,12.7850526 L20.0915,12.7850526 L20.0898372,13.8390526 L19.9601395,13.8390526 L20.0441105,13.9393947 C21.3884767,15.562 21.9621395,17.3983421 21.7684244,19.4500526 C21.6412209,20.7944737 21.1897733,22.0042895 20.409093,23.0827632 C19.6284128,24.1612368 18.6166047,24.9974211 17.3736686,25.5823421 C16.1565058,26.1566579 14.8562035,26.3818158 13.4744244,26.2561842 C11.9504767,26.1183158 10.6160872,25.5758158 9.46211047,24.6254211 C9.02396512,24.2664737 8.65981395,23.9140526 8.36716279,23.5673421 C8.11358721,23.2679474 7.85252907,22.8739211 7.58149419,22.3779211 C7.32459302,21.9023158 7.12505814,21.4479211 6.99203488,21.0114737 C6.69772093,20.0839211 6.59878488,19.1090526 6.69605814,18.0811579 C6.82076744,16.7563158 7.26972093,15.5342632 8.04541279,14.4280526 C8.82193605,13.3177632 9.81711628,12.4807632 11.0301221,11.9170526 C12.2381395,11.3533421 13.5259709,11.1355263 14.8886279,11.2587105 L14.8886279,11.2587105 Z M20.1097907,12.1691316 L20.1097907,11.8322105 L20.1097907,10.9911316 L21.3793314,10.9911316 L21.3793314,12.1683158 L20.5038721,12.1683158 L20.1097907,12.1683158 L20.1097907,12.1691316 Z" fill="#3C80B7" />
              <polygon fill="#F5F5F7" points="8.90424419 20.6345789 12.6222442 20.6345789 12.6222442 24.2827895 15.7599302 24.2827895 15.7599302 20.6345789 19.4779302 20.6345789 19.4779302 17.5492632 15.7599302 17.5492632 15.7599302 13.9010526 12.6222442 13.9010526 12.6222442 17.5492632 8.90424419 17.5492632" />
              <path d="M16.7085523,13.2231316 L16.7085523,11.2546316 L16.7085523,10.6680789 L17.6846105,10.6680789 L19.4621337,10.6680789 L19.4654593,10.7080526 L19.4637965,11.6315263 L19.4621337,12.7263158 L19.4613023,13.2215 L16.7085523,13.2215 L16.7085523,13.2231316 Z M13.4212151,5.94547368 L13.4212151,0.383421053 L19.4189012,0.383421053 L19.4189012,5.94547368 L13.4212151,5.94547368 L13.4212151,5.94547368 Z M20.1563488,5.61589474 L20.1563488,2.77694737 L23.2175465,2.77694737 L23.2175465,5.61589474 L20.1563488,5.61589474 L20.1563488,5.61589474 Z M24.2251977,10.3727632 L19.8503953,10.3727632 L19.8470698,10.3319737 L19.8503953,6.31502632 L24.2251977,6.31502632 L24.2251977,10.3727632 L24.2251977,10.3727632 Z M17.2730698,8.30636842 L17.2730698,6.60136842 L19.1112849,6.60136842 L19.1112849,8.30636842 L17.2730698,8.30636842 Z" fill="#F5F5F7" />
            </g>
          </g>
        </g>
      </g>
    </g>
  </g>
</svg>